<svg xmlns="http://www.w3.org/2000/svg" width="46" height="75" viewBox="0 0 46 72">
  <g fill="none" fill-rule="evenodd">
    <ellipse cx="23" cy="40" fill="#A3BFCE" rx="18" ry="20">
    </ellipse>
    <g transform="translate(.905)">
      <path fill="#CDE6F5" d="M37.2857143,41.8965517 L6.9047619,41.8965517 C3.09143452,41.8965517 0,38.7701961 0,34.9137931 L0,15.362069 C0,11.5056659 3.09143452,8.37931034 6.9047619,8.37931034 L37.2857143,8.37931034 C41.0990417,8.37931034 44.1904762,11.5056659 44.1904762,15.362069 L44.1904762,34.9137931 C44.1904762,38.7701961 41.0990417,41.8965517 37.2857143,41.8965517 Z"/>
      <path fill="#B7D3E2" d="M22.0952381,34.9137931 C13.8775357,34.9137931 6.26417262,32.9635086 0,29.6480948 L0,34.9137931 C0,38.7701961 3.09143452,41.8965517 6.9047619,41.8965517 L37.2857143,41.8965517 C41.0990417,41.8965517 44.1904762,38.7701961 44.1904762,34.9137931 L44.1904762,29.6480948 C37.9263036,32.9635086 30.3129405,34.9137931 22.0952381,34.9137931 Z"/>
      <path fill="#4A4A4A" d="M13.1190476 27.9310345L13.1190476 27.9310345C11.9751012 27.9310345 11.047619 26.9930754 11.047619 25.8362069L11.047619 23.0431034C11.047619 21.8862349 11.9751012 20.9482759 13.1190476 20.9482759L13.1190476 20.9482759C14.262994 20.9482759 15.1904762 21.8862349 15.1904762 23.0431034L15.1904762 25.8362069C15.1904762 26.9930754 14.262994 27.9310345 13.1190476 27.9310345zM31.0714286 27.9310345L31.0714286 27.9310345C29.9274821 27.9310345 29 26.9930754 29 25.8362069L29 23.0431034C29 21.8862349 29.9274821 20.9482759 31.0714286 20.9482759L31.0714286 20.9482759C32.215375 20.9482759 33.1428571 21.8862349 33.1428571 23.0431034L33.1428571 25.8362069C33.1428571 26.9930754 32.215375 27.9310345 31.0714286 27.9310345z"/>
      <path fill="#A4BFCE" d="M22.0952381 34.9137931C13.8775357 34.9137931 6.26417262 32.9635086 0 29.6480948L0 32.1206897C6.26417262 35.4361034 13.8775357 37.3863879 22.0952381 37.3863879 30.3129405 37.3863879 37.9263036 35.4361034 44.1904762 32.1206897L44.1904762 29.6480948C37.9263036 32.9635086 30.3129405 34.9137931 22.0952381 34.9137931zM22.3809524 11.1724138L22.3809524 11.1724138C21.6183214 11.1724138 21 10.5471078 21 9.77586207L21 4.18965517C21 3.41840948 21.6183214 2.79310345 22.3809524 2.79310345L22.3809524 2.79310345C23.1435833 2.79310345 23.7619048 3.41840948 23.7619048 4.18965517L23.7619048 9.77586207C23.7619048 10.5471078 23.1435833 11.1724138 22.3809524 11.1724138z"/>
      <ellipse cx="22.381" cy="2.793" fill="#B7D3E2" rx="2.762" ry="2.793"/>
      <path fill="#A4BFCE" d="M21,2.79310345 C21,1.49308836 21.882256,0.410237069 23.0714286,0.0988060345 C22.8494405,0.040674569 22.6208929,0 22.3809524,0 C20.8556905,0 19.6190476,1.2504375 19.6190476,2.79310345 C19.6190476,4.33559483 20.8556905,5.5862069 22.3809524,5.5862069 C22.6208929,5.5862069 22.8494405,5.54553233 23.0714286,5.48740086 C21.882256,5.17596983 21,4.09311853 21,2.79310345 Z"/>
    </g>
    <ellipse cx="23" cy="58.069" fill="#8CA5B4" rx="6.905" ry="6.983"/>
    <ellipse cx="23" cy="58.069" fill="#FFC855" rx="4.143" ry="4.19"/>
    <path fill="#FFB44B" d="M21.6190476,58.0689655 C21.6190476,56.2473384 22.7755952,54.7130517 24.3809524,54.1359267 C23.9469881,53.9798621 23.4867857,53.8793103 23,53.8793103 C20.7119345,53.8793103 18.8571429,55.7550539 18.8571429,58.0689655 C18.8571429,60.3828772 20.7119345,62.2586207 23,62.2586207 C23.4867857,62.2586207 23.9469881,62.158069 24.3809524,62.0020043 C22.7755952,61.4248793 21.6190476,59.8905927 21.6190476,58.0689655 Z"/>
    <ellipse cx="24.381" cy="56.672" fill="#FFF0BE" rx="1.381" ry="1.397"/>
    <path fill="#8CA5B4" d="M27.1428571,44.6896552 L18.8571429,44.6896552 C17.3317083,44.6896552 16.0952381,43.4392177 16.0952381,41.8965517 L16.0952381,41.8965517 L29.9047619,41.8965517 L29.9047619,41.8965517 C29.9047619,43.4392177 28.6682917,44.6896552 27.1428571,44.6896552 Z"/>
    <path fill="#8BA5B4" d="M34.047619 55.862069L34.047619 55.862069C33.2849881 55.862069 32.6666667 55.2367629 32.6666667 54.4655172L32.6666667 51.6724138C32.6666667 50.9011681 33.2849881 50.2758621 34.047619 50.2758621L34.047619 50.2758621C34.81025 50.2758621 35.4285714 50.9011681 35.4285714 51.6724138L35.4285714 54.4655172C35.4285714 55.2367629 34.81025 55.862069 34.047619 55.862069zM11.952381 55.862069L11.952381 55.862069C11.18975 55.862069 10.5714286 55.2367629 10.5714286 54.4655172L10.5714286 51.6724138C10.5714286 50.9011681 11.18975 50.2758621 11.952381 50.2758621L11.952381 50.2758621C12.7150119 50.2758621 13.3333333 50.9011681 13.3333333 51.6724138L13.3333333 54.4655172C13.3333333 55.2367629 12.7150119 55.862069 11.952381 55.862069z"/>
    <ellipse cx="22.905" cy="69.5" fill="#D8D8D8" rx="10" ry="2.5">
    <animate attributeType="CSS" attributeName="cy" 
           from="69.5" to="72" dur="2s" repeatCount="indefinite" />
    <animate attributeType="CSS" attributeName="rx" 
          from="10" to="15" dur="2s" repeatCount="indefinite" />
    </ellipse>
  </g>
</svg>
